# xmcd CD database file
#
# Track frame offsets:
#	150
#	11767
#	22977
#	33670
#	46162
#	57957
#	70277
#	82230
#	93932
#	105730
#	116410
#	131267
#	144540
#	156360
#	168005
#	181342
#	193222
#	204377
#	216530
#	228997
#	240537
#	250837
#	266270
#	279155
#
# Disc length: 3935 seconds
#
# Revision: 0
# Processed by: cddbd v1.5.1PL0 Copyright (c) Steve Scherf et al.
# Submitted via: CDex 1.51
#
DISCID=4d0f5d18
DTITLE=Bobby 'Blue' Bland - Call On Me - Ain't Nothing You Can Do
DYEAR=1900
DGENRE=Blues
TTITLE0=Call On Me
TTITLE1=The Feeling Is Gone
TTITLE2=Honky Tonk
TTITLE3=Cry Lover Cry
TTITLE4=Wishing Well
TTITLE5=Share Your Love With Me
TTITLE6=That's The Way Love Is
TTITLE7=Care For Me
TTITLE8=No Sweeter Girl
TTITLE9=Bobby's Blues
TTITLE10=Ain't It A Good Thing
TTITLE11=Queen For A Day
TTITLE12=Ain't Nothing You Can Do
TTITLE13=If I Hadn't Call You Back
TTITLE14=Today
TTITLE15=Steal Away
TTITLE16=After It's Too Late
TTITLE17=I'm Gonna Cry
TTITLE18=Loneliness Hurts
TTITLE19=When You Put Me Down
TTITLE20=If You Could Read My Mind
TTITLE21=Reconsider
TTITLE22=Black Night
TTITLE23=Blind Man
EXTD=
EXTT0=
EXTT1=
EXTT2=
EXTT3=
EXTT4=
EXTT5=
EXTT6=
EXTT7=
EXTT8=
EXTT9=
EXTT10=
EXTT11=
EXTT12=
EXTT13=
EXTT14=
EXTT15=
EXTT16=
EXTT17=
EXTT18=
EXTT19=
EXTT20=
EXTT21=
EXTT22=
EXTT23=
PLAYORDER=
